<?xml version="1.0" standalone="no"?>
<!DOCTYPE svg PUBLIC "-//W3C//DTD SVG 20010904//EN"
 "http://www.w3.org/TR/2001/REC-SVG-20010904/DTD/svg10.dtd">
<svg version="1.0" xmlns="http://www.w3.org/2000/svg"
 width="5000.000000pt" height="774.000000pt" viewBox="0 0 5000.000000 774.000000"
 preserveAspectRatio="xMidYMid meet">

<g transform="translate(0.000000,774.000000) scale(0.100000,-0.100000)"
fill="#000000" stroke="none">
<path d="M22895 6978 c-5 -15 -53 -177 -130 -442 -80 -275 -90 -328 -90 -491
0 -166 6 -198 38 -193 16 2 34 25 67 88 63 118 98 166 198 272 103 109 199
174 313 214 l84 29 733 3 733 3 -4 -2543 c-3 -1820 -7 -2560 -15 -2604 -39
-214 -140 -304 -419 -375 -65 -16 -122 -34 -126 -38 -5 -5 -6 -18 -2 -30 8
-26 15 -26 296 -4 386 29 1009 21 1544 -23 160 -12 181 -12 194 1 26 26 1 47
-80 66 -321 76 -570 323 -634 629 -13 62 -15 378 -15 2501 l0 2429 10393 -3
c9377 -3 10401 -5 10482 -19 143 -25 214 -46 314 -95 174 -83 305 -249 355
-448 25 -98 33 -115 55 -115 27 0 36 16 54 95 26 109 36 180 46 310 12 147 18
691 8 701 -11 11 -174 -13 -310 -46 l-121 -30 -11706 0 c-12487 0 -11813 -2
-11967 45 -67 20 -168 65 -221 99 -46 29 -61 32 -67 14z"/>
<path d="M3504 6675 c-1019 -101 -1814 -535 -2292 -1250 -129 -193 -260 -478
-327 -709 -129 -450 -144 -1043 -40 -1559 243 -1198 1094 -2097 2194 -2317
207 -41 372 -58 721 -71 727 -28 1243 20 1641 152 125 41 356 155 447 219 l72
51 0 1017 c0 1063 0 1066 43 1148 23 45 88 99 164 138 72 35 249 96 283 96 16
0 20 7 20 34 l0 33 -122 7 c-369 19 -1678 44 -1716 32 -36 -12 -27 -42 23 -72
25 -14 114 -49 198 -78 255 -88 337 -139 373 -233 18 -45 19 -102 22 -959 l3
-912 -51 -45 c-179 -161 -385 -230 -770 -257 -210 -15 -441 -1 -671 41 -419
76 -883 292 -1224 569 -337 273 -621 648 -804 1058 -157 353 -236 700 -248
1092 -16 533 92 966 349 1390 279 462 735 822 1271 1004 535 181 1151 193
1642 32 471 -155 820 -497 963 -946 17 -52 33 -108 37 -125 20 -93 25 -105 49
-105 13 0 27 7 30 15 7 19 98 641 125 860 11 88 25 223 31 300 14 164 17 159
-93 169 -39 4 -175 22 -302 41 -446 66 -932 125 -1200 145 -190 14 -680 11
-841 -5z"/>
<path d="M36460 5760 c-292 -21 -868 -207 -1163 -376 -456 -261 -727 -649
-841 -1204 -68 -334 -95 -800 -60 -1039 76 -524 542 -1127 1156 -1497 400
-241 753 -345 1128 -330 814 30 1507 451 1887 1146 94 170 172 405 209 625 22
124 24 466 5 605 -75 551 -296 1027 -656 1408 -289 307 -715 550 -1098 627
-202 40 -354 50 -567 35z m60 -2228 l0 -1968 -67 8 c-38 4 -80 10 -95 14 l-28
6 0 1948 0 1949 23 4 c12 2 55 5 95 6 l72 1 0 -1968z m298 1952 l32 -6 0
-1953 c0 -1772 -1 -1953 -16 -1959 -9 -3 -54 -6 -100 -6 l-84 0 0 1971 0 1972
68 -7 c37 -4 82 -9 100 -12z m-628 -1934 c0 -1056 -1 -1920 -2 -1920 -12 0
-124 48 -188 80 -218 110 -418 272 -577 470 -297 369 -471 840 -503 1361 -52
865 351 1591 1033 1860 45 18 207 66 230 68 4 1 7 -863 7 -1919z m866 1876
c254 -86 511 -270 708 -506 255 -305 427 -718 492 -1180 22 -151 26 -468 9
-618 -46 -392 -181 -740 -389 -999 -206 -256 -511 -451 -818 -522 l-78 -18 0
1933 c0 1064 1 1934 3 1934 2 0 35 -11 73 -24z"/>
<path d="M48356 5735 c-308 -44 -584 -142 -794 -282 -101 -67 -253 -217 -301
-296 -108 -182 -137 -398 -81 -612 36 -140 135 -323 282 -520 36 -48 251 -270
539 -555 263 -261 510 -513 549 -560 293 -350 371 -622 250 -875 -99 -208
-290 -352 -560 -421 -110 -28 -344 -26 -455 5 -213 57 -380 185 -474 361 -42
79 -61 160 -69 298 -6 103 -9 117 -26 120 -10 2 -22 0 -26 -5 -5 -4 -28 -102
-51 -218 -38 -183 -44 -227 -44 -340 0 -125 1 -132 31 -195 81 -169 255 -277
506 -314 182 -27 339 -16 548 38 530 138 965 501 1080 902 98 338 -2 693 -292
1039 -124 148 -230 246 -668 616 -235 198 -322 279 -404 379 -119 143 -191
266 -222 381 -24 87 -24 261 0 349 63 230 240 404 476 467 99 27 293 24 385
-4 75 -24 171 -77 219 -121 104 -97 213 -281 259 -437 26 -85 47 -110 71 -85
23 24 115 765 100 804 -7 19 -86 42 -224 68 -142 26 -467 33 -604 13z"/>
<path d="M11231 5722 c-5 -10 -19 -120 -31 -243 -32 -336 -234 -2190 -285
-2619 -96 -793 -145 -1137 -170 -1206 -32 -85 -106 -129 -260 -155 -98 -16
-117 -25 -113 -50 3 -21 6 -21 363 -23 198 -1 464 -8 592 -15 242 -13 278 -9
271 27 -4 19 -19 27 -167 88 -125 52 -185 91 -216 144 -18 32 -20 53 -21 260
-3 493 46 1012 225 2380 l17 135 41 -85 c105 -220 143 -301 238 -515 321 -719
672 -1447 835 -1730 163 -282 415 -665 452 -689 13 -8 21 -7 32 4 13 14 235
480 701 1470 174 370 764 1564 770 1558 2 -1 8 -66 15 -143 6 -77 29 -286 50
-465 131 -1084 152 -1286 171 -1705 16 -347 11 -403 -45 -567 -28 -81 -42
-136 -36 -142 15 -15 325 -25 807 -25 l453 -1 6 27 c9 33 -11 49 -80 62 -28 5
-90 17 -138 26 -185 34 -245 66 -327 172 -58 75 -79 131 -116 322 -64 324
-113 674 -184 1313 -103 912 -141 1289 -221 2206 -21 238 -27 243 -127 90
-346 -535 -587 -1024 -1223 -2483 -268 -615 -416 -935 -430 -935 -7 0 -118
227 -178 365 -80 182 -561 1189 -834 1745 -366 744 -639 1237 -769 1385 -35
39 -54 44 -68 17z"/>
<path d="M39402 5728 c-5 -7 -23 -38 -38 -68 l-29 -55 -5 -1875 -5 -1875 -23
-56 c-31 -77 -120 -160 -244 -229 -53 -29 -118 -71 -144 -94 -43 -38 -46 -44
-35 -64 8 -16 18 -21 34 -17 12 2 88 14 169 25 307 44 515 43 909 0 227 -25
264 -24 264 5 0 41 -169 120 -325 151 -85 16 -135 58 -175 145 -37 83 -44 161
-55 704 -6 270 -18 630 -27 800 -17 336 -25 1391 -10 1478 l8 49 53 -59 c29
-32 98 -110 152 -174 54 -64 158 -183 229 -265 72 -81 223 -254 336 -384 582
-666 1288 -1420 1742 -1863 299 -291 713 -667 735 -667 25 0 34 40 48 212 45
578 48 699 50 2284 2 1674 -3 1551 62 1606 23 19 223 93 310 114 11 3 8 49 -5
64 -3 3 -266 8 -586 13 -320 4 -604 8 -632 10 -44 2 -50 0 -53 -19 -6 -44 43
-64 259 -109 95 -20 158 -58 194 -119 50 -86 57 -130 61 -411 2 -143 11 -620
19 -1060 19 -1072 25 -1616 17 -1637 -6 -13 -20 -2 -71 55 -667 748 -1785
1955 -2672 2882 -173 181 -355 372 -403 423 -49 50 -92 92 -96 92 -4 0 -12 -6
-18 -12z"/>
<path d="M8132 5721 c-17 -10 -98 -229 -333 -896 -496 -1408 -679 -1909 -964
-2640 -109 -280 -139 -344 -200 -430 -102 -143 -265 -247 -439 -278 -33 -6
-67 -15 -73 -20 -14 -11 -17 -43 -5 -51 4 -3 80 3 168 11 211 22 731 22 929 1
77 -8 144 -12 148 -8 5 4 7 18 5 31 -2 18 -12 25 -43 32 -73 16 -169 48 -192
63 -63 40 -72 143 -29 314 56 222 206 677 342 1043 l59 157 599 -2 600 -3 81
-220 c45 -121 143 -376 218 -566 75 -191 159 -407 186 -480 27 -74 52 -142 56
-151 6 -15 -19 -30 -148 -91 -85 -41 -157 -79 -161 -85 -8 -13 2 -39 17 -45 7
-2 107 4 222 14 335 29 533 34 697 18 79 -7 217 -14 308 -14 l165 0 3 31 c3
31 3 32 -55 39 -73 8 -224 58 -283 92 -65 39 -135 107 -186 184 -61 92 -416
815 -547 1114 -196 446 -436 1053 -767 1940 -237 635 -330 878 -342 893 -12
14 -18 15 -36 3z m216 -1616 c128 -429 232 -786 232 -792 0 -10 -104 -13 -488
-13 -269 0 -491 2 -493 5 -3 2 43 147 101 322 58 175 173 533 255 795 82 263
152 475 155 470 4 -4 111 -358 238 -787z"/>
<path d="M18255 5682 l-60 -27 -1120 -5 -1120 -5 -3 -22 c-4 -26 50 -57 186
-105 87 -30 183 -76 212 -100 8 -7 24 -26 35 -43 20 -30 20 -53 23 -1770 3
-1887 4 -1828 -51 -1949 -48 -105 -140 -174 -246 -185 -55 -6 -56 -7 -59 -40
l-3 -33 93 8 c51 4 485 6 963 4 479 -3 933 -5 1010 -5 173 0 231 16 240 68 2
18 16 118 31 222 14 105 37 248 50 319 14 70 24 129 22 131 -2 1 -15 5 -30 9
-25 6 -27 3 -52 -72 -109 -325 -417 -507 -786 -463 -125 16 -195 34 -309 82
-121 52 -193 101 -270 185 l-61 67 0 798 0 799 253 0 c260 0 417 -10 571 -36
183 -31 209 -56 276 -257 44 -134 96 -192 120 -134 5 12 19 103 30 202 11 99
29 248 39 330 11 83 21 182 23 220 3 66 2 70 -19 73 -12 2 -50 -9 -85 -23 -35
-15 -110 -45 -168 -68 l-105 -42 -472 -3 -473 -3 0 796 0 795 289 0 c440 0
580 -16 723 -84 108 -51 177 -161 196 -310 8 -66 31 -92 56 -66 7 8 35 121 60
250 76 381 92 522 58 520 -4 -1 -34 -13 -67 -28z"/>
<path d="M46155 5682 l-60 -27 -1120 -5 c-1042 -5 -1120 -6 -1123 -22 -5 -24
56 -61 163 -98 130 -45 232 -98 260 -135 14 -17 29 -53 35 -81 16 -75 8 -3484
-8 -3544 -52 -189 -164 -300 -302 -300 -39 0 -40 -1 -40 -36 l0 -35 103 5
c245 13 740 16 1372 7 823 -12 818 -12 830 87 16 139 57 417 77 524 12 65 20
120 17 122 -2 2 -15 7 -29 11 -24 6 -27 3 -39 -46 -56 -218 -252 -412 -473
-468 -322 -83 -737 37 -923 266 l-45 55 0 794 0 794 253 0 c350 0 613 -26 714
-70 55 -24 94 -85 134 -210 63 -199 119 -227 138 -70 6 47 20 159 32 250 39
315 49 405 49 453 0 43 -2 47 -24 47 -13 0 -57 -14 -97 -31 -41 -16 -114 -47
-164 -67 l-90 -37 -472 -3 -473 -3 0 796 0 795 288 0 c334 0 498 -11 600 -40
91 -25 178 -69 214 -107 43 -45 79 -128 94 -216 18 -105 20 -109 46 -105 26 4
25 0 82 283 48 238 81 457 72 480 -7 20 -20 18 -91 -13z"/>
<path d="M30744 5626 c-10 -27 1 -38 64 -61 131 -47 269 -159 324 -261 61
-113 58 -18 58 -1759 0 -1324 -3 -1601 -14 -1656 -37 -171 -172 -345 -339
-434 -38 -20 -52 -60 -24 -71 8 -3 94 5 193 16 225 27 642 37 869 21 88 -6
204 -14 258 -18 l99 -6 -4 28 c-3 26 -8 29 -74 45 -40 9 -98 29 -130 45 -80
38 -189 150 -231 235 -60 125 -63 157 -63 794 l0 575 46 7 c25 3 119 4 207 1
185 -6 263 -23 390 -87 134 -68 218 -131 352 -265 148 -147 216 -234 440 -560
223 -325 293 -414 424 -545 282 -281 572 -397 921 -368 167 13 450 100 450
136 -1 39 -15 44 -126 47 -130 3 -207 21 -331 80 -285 134 -571 399 -919 850
-120 155 -356 473 -477 641 -47 67 -113 154 -147 195 l-60 74 58 60 c208 215
414 508 497 705 128 302 140 653 32 915 -43 104 -102 191 -197 286 -139 140
-272 218 -480 278 -227 66 -187 64 -1168 68 -789 3 -893 2 -898 -11z m1507
-190 c151 -27 269 -90 399 -213 170 -161 273 -352 332 -614 20 -91 23 -130 23
-309 0 -159 -4 -224 -18 -288 -27 -127 -74 -246 -130 -329 -78 -117 -167 -177
-333 -225 -73 -21 -99 -23 -324 -23 -152 0 -286 5 -352 14 l-108 14 0 962 0
963 38 15 c107 43 330 58 473 33z"/>
<path d="M26190 5584 c0 -29 1 -30 83 -46 88 -16 194 -63 252 -110 18 -16 46
-54 62 -86 l28 -57 0 -1770 c0 -1908 2 -1832 -51 -1917 -33 -52 -100 -88 -222
-118 -112 -28 -143 -49 -110 -74 29 -22 328 -28 895 -20 551 7 572 9 547 50
-7 12 -34 22 -81 30 -39 6 -88 17 -109 24 -122 39 -233 133 -280 235 -52 112
-53 144 -54 1048 l0 837 1185 0 1185 0 0 -862 c0 -529 -4 -888 -10 -928 -28
-182 -99 -265 -287 -335 -77 -29 -88 -37 -91 -59 l-3 -26 388 6 c251 5 500 3
706 -5 175 -7 320 -11 322 -9 2 1 6 15 10 29 6 26 5 27 -80 48 -220 55 -341
164 -392 353 -16 58 -17 196 -20 1703 -3 1071 0 1669 6 1724 15 121 42 163
134 207 40 18 108 43 152 54 87 22 99 29 93 56 -3 18 -23 19 -513 16 -281 -2
-586 1 -679 7 -93 5 -175 7 -182 4 -8 -3 -14 -16 -14 -29 0 -20 8 -26 58 -39
135 -38 223 -69 283 -98 53 -27 67 -40 88 -82 l26 -49 3 -713 3 -713 -1181 0
-1181 0 3 713 3 712 27 56 c42 85 156 163 256 175 76 9 89 13 96 31 4 9 2 21
-4 27 -8 8 -179 11 -558 11 -301 0 -602 4 -669 9 l-123 9 0 -29z"/>
<path d="M20380 4570 c-206 -19 -563 -146 -726 -258 -305 -208 -443 -539 -445
-1071 0 -212 27 -314 130 -483 192 -318 534 -583 872 -677 272 -75 596 -31
877 120 265 142 463 372 565 656 79 220 80 508 2 776 -136 469 -529 843 -969
921 -108 20 -215 25 -306 16z m36 -2378 c-3 -2 -28 -1 -55 3 l-51 7 0 1108 0
1109 53 3 52 3 3 -1114 c1 -613 0 -1116 -2 -1119z m178 2222 c14 -6 16 -113
16 -1115 l0 -1109 -32 0 c-18 0 -43 -3 -55 -6 l-23 -6 0 1121 0 1121 39 0 c22
0 46 -3 55 -6z m-354 -1099 c0 -948 -2 -1085 -15 -1085 -27 0 -123 48 -201
101 -242 163 -410 429 -486 770 -32 145 -33 428 -1 565 69 293 228 522 450
647 68 39 195 86 231 87 l22 0 0 -1085z m557 1035 c111 -52 190 -110 284 -207
371 -382 451 -1103 173 -1550 -123 -197 -326 -342 -541 -388 l-33 -7 0 1096
c0 999 1 1096 16 1096 9 0 54 -18 101 -40z"/>
<path d="M23105 4547 c-59 -24 -116 -25 -864 -17 -333 4 -465 2 -468 -6 -4
-11 62 -43 162 -79 70 -26 92 -52 100 -116 3 -30 5 -506 3 -1059 l-3 -1005
-23 -36 c-23 -38 -83 -71 -155 -84 -42 -8 -49 -15 -37 -35 7 -11 40 -11 210 0
136 9 251 10 353 5 234 -13 252 -12 252 5 0 9 -13 17 -35 20 -95 16 -181 86
-229 189 l-26 56 -3 473 -3 472 234 0 c249 0 306 -8 361 -51 37 -29 64 -87 72
-154 7 -56 20 -78 33 -56 9 13 47 275 59 398 10 101 2 114 -46 71 -65 -57 -74
-58 -407 -58 l-305 0 0 435 0 435 40 0 c21 0 90 7 152 16 308 45 457 13 514
-110 13 -28 24 -70 24 -94 0 -29 5 -44 15 -49 9 -3 18 -4 20 -2 4 5 85 430 85
448 0 16 -28 12 -85 -12z"/>
</g>
</svg>
